<?xml version="1.0" encoding="UTF-8"?>
<svg version="1.1" xmlns="http://www.w3.org/2000/svg" width="30" height="30">
<path d="M0 0 C0.70108887 0.00829834 1.40217773 0.01659668 2.12451172 0.02514648 C8.86892511 0.24444528 13.95615846 1.47487374 18.92578125 6.12109375 C21.54607609 9.02905819 23.45457678 11.89464889 25.125 15.4375 C25.4653125 14.77363281 25.805625 14.10976563 26.15625 13.42578125 C29.44402802 7.43607927 32.40415733 2.62669957 39.125 0.4375 C47.71031118 -0.8665979 54.09286469 0.34965016 61.125 5.4375 C62.053125 4.798125 62.98125 4.15875 63.9375 3.5 C69.79329134 -0.28904145 75.33112137 -0.04906425 82.125 0.4375 C87.97472175 2.35195439 91.4424622 6.20495306 94.265625 11.62890625 C94.54921875 12.22574219 94.8328125 12.82257812 95.125 13.4375 C95.83462891 12.53257813 95.83462891 12.53257813 96.55859375 11.609375 C102.25033188 4.73047122 106.73412145 0.98936796 115.75 0.06640625 C125.01355975 -0.23686505 130.76029277 0.78332651 137.8125 6.6875 C145.52474619 15.8588198 145.52474619 15.8588198 145.125 22.4375 C141.83426338 22.66281972 138.54250581 22.86485982 135.25 23.0625 C134.31285156 23.12695312 133.37570313 23.19140625 132.41015625 23.2578125 C131.51425781 23.309375 130.61835938 23.3609375 129.6953125 23.4140625 C128.86789551 23.46643066 128.04047852 23.51879883 127.18798828 23.57275391 C125.125 23.4375 125.125 23.4375 123.125 21.4375 C119.625 21.10416667 119.625 21.10416667 116.125 21.4375 C113.74505632 23.38082332 113.74505632 23.38082332 113.875 26.9375 C113.74505632 30.49417668 113.74505632 30.49417668 116.125 32.4375 C119.58286015 32.93757794 119.58286015 32.93757794 123.125 32.4375 C123.83329956 31.45475098 123.83329956 31.45475098 124.5559082 30.45214844 C126.125 28.4375 126.125 28.4375 128.30151367 27.89160156 C129.12369385 27.8706543 129.94587402 27.84970703 130.79296875 27.828125 C131.68564453 27.79589844 132.57832031 27.76367188 133.49804688 27.73046875 C134.42681641 27.71628906 135.35558594 27.70210937 136.3125 27.6875 C137.25287109 27.65785156 138.19324219 27.62820312 139.16210938 27.59765625 C141.48315916 27.52696438 143.80320535 27.47426835 146.125 27.4375 C145.5645866 35.08777025 144.07940002 40.38554139 139.125 46.4375 C131.8080261 52.5952259 125.45928161 53.98744906 116 53.77734375 C108.56451448 53.12523968 103.38066309 50.19642979 98.5 44.625 C97.71625 43.573125 96.9325 42.52125 96.125 41.4375 C95.795 45.0675 95.465 48.6975 95.125 52.4375 C88.855 52.4375 82.585 52.4375 76.125 52.4375 C75.795 41.8775 75.465 31.3175 75.125 20.4375 C73.805 20.4375 72.485 20.4375 71.125 20.4375 C70.795 30.9975 70.465 41.5575 70.125 52.4375 C63.855 52.4375 57.585 52.4375 51.125 52.4375 C50.795 41.8775 50.465 31.3175 50.125 20.4375 C48.805 20.4375 47.485 20.4375 46.125 20.4375 C45.795 30.9975 45.465 41.5575 45.125 52.4375 C32.585 52.4375 20.045 52.4375 7.125 52.4375 C6.75 41.375 6.75 41.375 6.64697266 37.92944336 C6.69208747 29.11096344 6.69208747 29.11096344 3.125 21.4375 C-0.33321402 21.18746036 -0.33321402 21.18746036 -3.875 21.4375 C-6.25494368 23.38082332 -6.25494368 23.38082332 -6.125 26.9375 C-6.25494368 30.49417668 -6.25494368 30.49417668 -3.875 32.4375 C-1.235 32.4375 1.405 32.4375 4.125 32.4375 C4.125 39.3675 4.125 46.2975 4.125 53.4375 C-3.74342038 53.79926645 -10.23979193 54.06614237 -16.875 49.4375 C-22.48319996 44.24579848 -26.45322028 39.57094127 -27.24609375 31.80078125 C-27.53251282 22.37330321 -26.80605494 14.93076548 -20.23046875 7.60546875 C-14.29693488 2.10054229 -8.04745477 -0.12310609 0 0 Z " fill="#000000" transform="translate(26.875,31.5625)"/>
<path d="M0 0 C1.98 0 3.96 0 6 0 C6 36.3 6 72.6 6 110 C4.02 110 2.04 110 0 110 C0 73.7 0 37.4 0 0 Z " fill="#BD1F1C" transform="translate(187,0)"/>
<path d="M0 0 C1.84106445 0.03344727 1.84106445 0.03344727 4 1 C5.07311552 3.53432989 5.84025227 5.82536898 6.54296875 8.46484375 C6.86386223 9.5876046 6.86386223 9.5876046 7.1912384 10.73304749 C7.87281547 13.13031477 8.53060489 15.53336469 9.1875 17.9375 C9.86024324 20.33638287 10.5376813 22.7339001 11.21589661 25.13124084 C11.63647107 26.62468908 12.05284536 28.11932766 12.46464539 29.61521912 C13.49065643 33.39626971 13.49065643 33.39626971 15 37 C18.3 24.79 21.6 12.58 25 0 C25.99 0 26.98 0 28 0 C28.19110352 0.65895264 28.38220703 1.31790527 28.57910156 1.99682617 C29.46832761 5.06069679 30.35915921 8.12409851 31.25 11.1875 C31.55035156 12.22326172 31.85070312 13.25902344 32.16015625 14.32617188 C34.36645164 21.90737839 36.65853936 29.45948137 39 37 C39.44653931 35.42532959 39.44653931 35.42532959 39.90209961 33.81884766 C41.00523948 29.93074419 42.11098615 26.04338615 43.2175293 22.15625 C43.69643356 20.4725337 44.17462697 18.78861503 44.65209961 17.10449219 C45.33781941 14.68631521 46.02607736 12.26887322 46.71484375 9.8515625 C46.92842026 9.0963028 47.14199677 8.34104309 47.36204529 7.56289673 C48.88612829 2.22774341 48.88612829 2.22774341 50 0 C50.99 0 51.98 0 53 0 C49.50548148 14.80572322 45.23088378 29.39205776 41 44 C39.35 43.67 37.7 43.34 36 43 C31.545 26.665 31.545 26.665 27 10 C25.18709235 14.83442041 23.53422506 19.32884505 22.17578125 24.25 C21.71655273 25.90322266 21.71655273 25.90322266 21.24804688 27.58984375 C20.93931641 28.71519531 20.63058594 29.84054688 20.3125 31 C19.99216797 32.15628906 19.67183594 33.31257813 19.34179688 34.50390625 C18.55796461 37.33506159 17.77745562 40.16708825 17 43 C15.02 43.495 15.02 43.495 13 44 C10.90456869 38.58626359 9.09377452 33.18314858 7.51953125 27.59765625 C7.30181564 26.83448593 7.08410004 26.07131561 6.85978699 25.28501892 C6.40536892 23.68972448 5.95252894 22.09397973 5.5012207 20.49780273 C4.80718608 18.04371008 4.10809422 15.59110004 3.40820312 13.13867188 C2.96585394 11.58341633 2.52378624 10.02808068 2.08203125 8.47265625 C1.87270462 7.7373317 1.66337799 7.00200714 1.44770813 6.24440002 C0 1.11668111 0 1.11668111 0 0 Z " fill="#626262" transform="translate(206,38)"/>
<path d="M0 0 C5.51595963 3.38889023 9.4798445 8.27978362 11.4375 14.4375 C12.24344257 22.2813829 12.53421889 30.02934467 7.4375 36.4375 C2.90010657 41.23294424 -1.3459704 44.12773343 -8.05078125 44.7734375 C-16.42019891 44.85892696 -22.96727327 44.79522063 -29.30078125 38.7890625 C-35.24051427 32.29646651 -36.02541929 26.57433862 -35.87109375 17.88671875 C-35.28589005 11.3457711 -32.91797257 7.43687235 -28.125 3.0625 C-20.83289428 -2.99451589 -8.61681965 -3.89092825 0 0 Z M-29 7.75 C-33.05197461 14.71939633 -34.61314007 20.42599315 -32.5625 28.4375 C-29.94450324 34.87574955 -25.72574423 38.43324078 -19.5625 41.4375 C-13.56983159 43.43505614 -8.1170213 42.80550689 -2.3828125 40.421875 C2.63841914 37.70653085 6.64833058 32.80500826 8.4375 27.4375 C8.92569183 20.93140504 9.34212405 14.95783056 5.4375 9.4375 C0.2030377 3.51429266 -4.45010535 0.86292014 -12.1875 0.0625 C-18.64274124 0.14711927 -24.40033595 3.38621616 -29 7.75 Z " fill="#616161" transform="translate(408.5625,38.5625)"/>
<path d="M0 0 C16 0 16 0 21 4 C22.8382537 7.67650739 22.37884188 11.97796199 22 16 C20.5 19.125 20.5 19.125 19 21 C19.804375 21.78375 20.60875 22.5675 21.4375 23.375 C24.56680259 26.58062704 25.16254396 27.97613809 25.25 32.3125 C25.19812114 36.3460816 24.68369898 38.83706906 22 42 C18 44 18 44 0 44 C0 29.48 0 14.96 0 0 Z M2 2 C2 7.94 2 13.88 2 20 C10.60094823 20.68337217 10.60094823 20.68337217 18 17 C19.59616743 13.80766515 19.51466114 10.46538503 19 7 C17.12984906 4.56880377 15.71861655 3.35930827 13 2 C9.32984725 1.8622315 5.67388652 1.95728039 2 2 Z M2 22 C2 28.6 2 35.2 2 42 C5.0628125 42.0928125 5.0628125 42.0928125 8.1875 42.1875 C9.91033203 42.23970703 9.91033203 42.23970703 11.66796875 42.29296875 C16.27072382 41.88827165 18.78317409 40.21682591 22 37 C22.57085213 33.94143437 22.50821232 31.06515556 22 28 C19.50490809 24.37077541 17.96099384 23.23571547 13.6875 22.1875 C9.79619253 21.98963691 5.89633464 22 2 22 Z " fill="#636363" transform="translate(305,38)"/>
<path d="M0 0 C3.125 1.625 3.125 1.625 5 4 C5.8125 7.25 5.8125 7.25 6 10 C5.01 10 4.02 10 3 10 C2.7525 9.21625 2.505 8.4325 2.25 7.625 C1.23091016 4.96157469 1.23091016 4.96157469 -0.75 3.6875 C-3.72986902 2.77698447 -5.89492688 2.61978697 -9 3 C-12.41639845 4.9739191 -13.72268412 6.18538459 -15 9.9375 C-15 13.71162531 -14.32036655 15.04082809 -12 18 C-8.78617604 19.46489509 -8.78617604 19.46489509 -5.125 20.4375 C4.28944513 23.57889027 4.28944513 23.57889027 7 29 C7.9258492 33.81095473 7.47677752 37.06347274 5.25 41.4375 C2.56791943 44.49209175 0.66568998 45.76361495 -3.3671875 46.3359375 C-9.10878831 46.42537053 -12.49852807 45.93878794 -17 42 C-19.1519437 38.77208445 -19.20086443 37.71599191 -19 34 C-18.01 34.33 -17.02 34.66 -16 35 C-15.525625 35.969375 -15.05125 36.93875 -14.5625 37.9375 C-13.26829176 40.9575235 -13.26829176 40.9575235 -11.3125 42.4375 C-6.80321569 43.53435294 -2.35299197 42.45099732 2 41 C2.92015848 38.23952457 3.19267245 36.36637731 3.25 33.5 C3.27578125 32.7265625 3.3015625 31.953125 3.328125 31.15625 C3.15210481 28.9805816 3.15210481 28.9805816 1.91796875 27.37109375 C-1.79618077 24.71596853 -6.34193989 23.75225259 -10.65234375 22.37890625 C-14.07864774 20.96760484 -15.82386077 19.97619042 -18 17 C-18.80575378 13.2713049 -18.66113165 9.75011648 -18 6 C-12.9883503 -0.59427592 -7.85125914 -0.80438586 0 0 Z " fill="#616161" transform="translate(358,37)"/>
<path d="M0 0 C7.92 0 15.84 0 24 0 C24 0.66 24 1.32 24 2 C16.74 2 9.48 2 2 2 C2 8.27 2 14.54 2 21 C9.26 21 16.52 21 24 21 C24 21.66 24 22.32 24 23 C16.74 23 9.48 23 2 23 C2 29.27 2 35.54 2 42 C9.26 42 16.52 42 24 42 C24 42.66 24 43.32 24 44 C16.08 44 8.16 44 0 44 C0 29.48 0 14.96 0 0 Z " fill="#656565" transform="translate(268,38)"/>
<path d="M0 0 C6.93 0 13.86 0 21 0 C21 0.66 21 1.32 21 2 C14.73 2 8.46 2 2 2 C2 8.27 2 14.54 2 21 C8.27 21 14.54 21 21 21 C21 21.66 21 22.32 21 23 C14.73 23 8.46 23 2 23 C2 29.93 2 36.86 2 44 C1.34 44 0.68 44 0 44 C0 29.48 0 14.96 0 0 Z " fill="#656565" transform="translate(431,38)"/>
<path d="M0 0 C8.58 0 17.16 0 26 0 C26 0.66 26 1.32 26 2 C22.04 2 18.08 2 14 2 C14 15.86 14 29.72 14 44 C13.34 44 12.68 44 12 44 C12 30.14 12 16.28 12 2 C8.04 2 4.08 2 0 2 C0 1.34 0 0.68 0 0 Z " fill="#656565" transform="translate(459,38)"/>
</svg>
