<?xml version="1.0" standalone="no"?>
<!DOCTYPE svg PUBLIC "-//W3C//DTD SVG 20010904//EN"
 "http://www.w3.org/TR/2001/REC-SVG-20010904/DTD/svg10.dtd">
<svg version="1.0" xmlns="http://www.w3.org/2000/svg"
 width="204.000000pt" height="192.000000pt" viewBox="0 0 204.000000 192.000000"
 preserveAspectRatio="xMidYMid meet">

<g transform="translate(0.000000,192.000000) scale(0.100000,-0.100000)"
fill="#000000" stroke="none">
<path d="M202 1003 l3 -328 2 323 3 322 810 0 810 0 3 -322 2 -323 3 328 2
327 -820 0 -820 0 2 -327z"/>
<path d="M555 1211 c-35 -15 -85 -74 -96 -114 -28 -106 54 -217 161 -217 l30
0 0 66 c0 41 -4 63 -10 59 -16 -10 -49 4 -61 26 -23 43 44 92 79 57 8 -8 12
-46 12 -105 l0 -93 66 0 67 0 -5 108 c-5 123 -20 161 -78 199 -25 17 -47 23
-89 22 -31 0 -65 -4 -76 -8z"/>
<path d="M889 1181 l-39 -39 0 -126 0 -126 60 0 60 0 0 105 c0 98 1 105 20
105 19 0 20 -7 20 -105 l0 -105 60 0 59 0 3 103 c3 94 4 102 23 102 19 0 20
-8 23 -102 l3 -103 59 0 60 0 0 110 c0 123 -11 164 -55 198 -36 28 -97 29
-141 1 l-34 -21 -26 21 c-18 14 -41 21 -72 21 -38 0 -50 -5 -83 -39z"/>
<path d="M1425 1201 c-45 -27 -83 -77 -91 -117 -13 -71 32 -155 100 -188 93
-44 213 14 232 113 l7 31 -62 0 c-33 0 -61 -4 -61 -10 0 -5 -10 -14 -21 -21
-46 -24 -92 28 -62 70 15 22 43 27 72 12 19 -11 131 -3 131 9 0 17 -48 76 -79
97 -43 29 -122 31 -166 4z"/>
<path d="M309 783 c43 -147 64 -204 74 -200 11 3 49 134 44 152 -2 5 -12 -23
-22 -63 -10 -40 -22 -72 -25 -72 -4 0 -20 47 -36 105 -16 58 -32 105 -36 105
-4 0 -3 -12 1 -27z"/>
<path d="M436 784 c-4 -15 -5 -29 -1 -32 3 -3 5 0 5 6 0 7 5 12 10 12 6 0 10
-5 10 -12 0 -26 51 -178 60 -178 5 0 23 46 40 103 17 56 33 108 35 115 3 6 1
12 -3 12 -4 0 -20 -47 -35 -105 -16 -58 -32 -105 -36 -105 -3 0 -19 47 -36
105 -16 58 -32 105 -36 105 -4 0 -10 -12 -13 -26z"/>
<path d="M660 695 l0 -115 63 2 62 2 -57 3 -58 4 0 49 0 50 45 0 c25 0 45 5
45 10 0 6 -20 10 -45 10 l-45 0 0 44 0 45 53 4 52 3 -57 2 -58 2 0 -115z"/>
<path d="M840 695 l0 -115 53 0 c40 0 58 5 70 18 24 26 21 68 -5 86 -17 12
-20 18 -10 28 7 7 12 27 12 45 0 39 -21 53 -79 53 l-41 0 0 -115z m91 95 c26
-15 26 -66 -1 -80 -12 -6 -33 -10 -48 -8 -23 2 -28 9 -30 36 -2 19 -1 40 2 48
6 16 49 18 77 4z m25 -125 c15 -23 15 -27 0 -50 -14 -21 -25 -25 -61 -25 l-45
0 0 50 0 50 45 0 c36 0 47 -4 61 -25z"/>
<path d="M1046 794 c-34 -33 -10 -78 62 -116 65 -35 21 -114 -49 -89 -39 13
-46 14 -33 2 17 -16 69 -21 93 -8 53 27 44 85 -17 116 -56 28 -68 46 -53 78
10 23 16 25 51 20 23 -3 38 -1 34 4 -9 15 -71 10 -88 -7z"/>
<path d="M1247 799 c-11 -6 -25 -26 -33 -45 -31 -73 -8 -155 49 -173 80 -27
127 16 127 116 0 55 -4 67 -25 88 -26 27 -84 34 -118 14z m108 -24 c21 -20 25
-34 25 -80 0 -49 -4 -60 -29 -86 -16 -16 -36 -29 -45 -29 -62 0 -103 61 -91
136 11 78 89 111 140 59z"/>
<path d="M1460 695 c0 -70 4 -115 10 -115 6 0 10 25 10 54 l0 55 48 4 47 3
-47 2 -48 2 0 49 0 50 48 4 c46 3 46 3 -10 5 l-58 2 0 -115z"/>
<path d="M1643 803 l37 -4 2 -112 2 -112 5 110 6 110 40 6 c27 4 11 6 -45 6
-47 0 -68 -2 -47 -4z"/>
</g>
</svg>
